<svg preserveAspectRatio="none" width="100%" height="100%" overflow="visible" style="display: block;" viewBox="0 0 18 15" fill="none" xmlns="http://www.w3.org/2000/svg">
<g id="ELEMENTS">
<path id="Vector" d="M17.2778 1.72009C16.7164 1.96191 16.1262 2.1303 15.5218 2.2211C15.8044 2.17261 16.2201 1.66353 16.3856 1.45747C16.6371 1.14665 16.8287 0.79183 16.9508 0.411025C16.9508 0.382742 16.979 0.342339 16.9508 0.322137C16.9366 0.314357 16.9206 0.31028 16.9044 0.31028C16.8881 0.31028 16.8722 0.314357 16.8579 0.322137C16.2016 0.677857 15.5032 0.949354 14.779 1.1302C14.7538 1.13792 14.7269 1.13861 14.7013 1.13221C14.6757 1.1258 14.6523 1.11254 14.6337 1.09384C14.5773 1.02666 14.5166 0.96323 14.452 0.903946C14.1567 0.639081 13.8216 0.4223 13.459 0.261532C12.9696 0.0605562 12.4409 -0.0264819 11.9129 0.00699059C11.4006 0.039373 10.9005 0.176902 10.4435 0.411025C9.9936 0.657858 9.59815 0.993189 9.28096 1.39687C8.94732 1.81236 8.70644 2.29454 8.57453 2.81099C8.46576 3.30223 8.45342 3.80995 8.5382 4.30591C8.5382 4.39076 8.5382 4.40288 8.46554 4.39076C5.58734 3.96652 3.22584 2.94432 1.29627 0.750413C1.2115 0.653445 1.16709 0.653445 1.09847 0.750413C0.258826 2.02716 0.666538 4.04733 1.71609 5.04529C1.85738 5.17862 2.0027 5.30792 2.1561 5.42913C1.67488 5.39493 1.20542 5.26441 0.77553 5.04529C0.694795 4.99277 0.650391 5.02105 0.646354 5.11802C0.634911 5.25245 0.634911 5.38762 0.646354 5.52205C0.730583 6.16632 0.984261 6.77665 1.38145 7.29061C1.77863 7.80457 2.30507 8.20372 2.90693 8.44726C3.05365 8.51016 3.20653 8.55755 3.36309 8.58867C2.9176 8.67645 2.4607 8.69011 2.01078 8.62907C1.91389 8.60887 1.87756 8.6614 1.91389 8.75432C2.5073 10.3705 3.79502 10.8634 4.73962 11.1381C4.86879 11.1583 4.99797 11.1583 5.14329 11.1906C5.14329 11.1906 5.14329 11.1906 5.11907 11.2149C4.84054 11.724 3.71428 12.0674 3.19758 12.2452C2.25446 12.5842 1.24892 12.7138 0.250752 12.625C0.0933191 12.6007 0.0569884 12.6048 0.0166209 12.625C-0.0237466 12.6452 0.0166209 12.6896 0.0610251 12.73C0.262863 12.8633 0.4647 12.9805 0.674611 13.0936C1.29952 13.4348 1.96017 13.7058 2.64455 13.9017C6.18881 14.8795 10.1771 14.1603 12.8373 11.5139C14.9284 9.43714 15.6631 6.57254 15.6631 3.7039C15.6631 3.59481 15.7963 3.53017 15.873 3.4736C16.402 3.06104 16.8684 2.57381 17.2576 2.02716C17.325 1.94567 17.3595 1.84192 17.3545 1.73626V1.73626C17.3545 1.67565 17.3545 1.68777 17.2778 1.72009Z" fill="var(--fill-0, #101012)"/>
</g>
</svg>
