<svg preserveAspectRatio="none" width="100%" height="100%" overflow="visible" style="display: block;" viewBox="0 0 28 28" fill="none" xmlns="http://www.w3.org/2000/svg">
<g id="Content Marketing">
<path id="Vector" d="M25.3088 11.0276C24.3539 10.0727 22.6808 10.0727 21.7259 11.0276L17.9317 14.8218C17.1373 15.6161 16.6979 16.6809 16.6979 17.8132V18.8019C16.6979 19.2667 17.0782 19.6469 17.543 19.6469H18.5316C19.664 19.6469 20.7203 19.2075 21.5231 18.4132L25.3173 14.619C25.799 14.1373 26.0609 13.5035 26.0609 12.8275C26.0609 12.1515 25.799 11.5177 25.3173 11.036L25.3088 11.0276Z" fill="var(--fill-0, #0451D3)"/>
<g id="Group">
<path id="Vector_2" d="M4.65614 11.3573L7.38561 10.4531C7.52082 10.4109 7.60532 10.2841 7.60532 10.1405C7.60532 9.9968 7.51237 9.8785 7.37716 9.8278L4.65614 8.92361C4.65614 8.92361 4.58009 8.90671 4.54629 8.90671C4.46178 8.90671 4.39418 8.94051 4.36038 8.96586C4.30968 8.99966 4.22517 9.08417 4.22517 9.22782V11.0446C4.22517 11.1883 4.30968 11.2728 4.36038 11.3066C4.41108 11.3404 4.52094 11.3996 4.65614 11.3489V11.3573Z" fill="var(--fill-0, #0451D3)"/>
<path id="Vector_3" d="M16.7402 13.6219L20.5344 9.82771C21.1428 9.21928 21.954 8.82211 22.8244 8.67846V5.90674C22.8244 4.51243 21.6836 3.37163 20.2893 3.37163H3.38014C1.98583 3.37163 0.845031 4.51243 0.845031 5.90674V21.1174C0.845031 22.5117 1.98583 23.6525 3.38014 23.6525H20.2809C21.6752 23.6525 22.816 22.5117 22.816 21.1174V19.4865L22.7146 19.5879C21.5991 20.7033 20.1119 21.3202 18.5316 21.3202H17.5429C16.1486 21.3202 15.0078 20.1794 15.0078 18.7851V17.7964C15.0078 16.2162 15.6247 14.7289 16.7402 13.6135V13.6219ZM2.5351 9.22773C2.5351 8.57705 2.84777 7.96863 3.37169 7.58836C3.89561 7.20809 4.58009 7.10669 5.18852 7.3095L7.90953 8.21369C8.73767 8.49255 9.28694 9.26153 9.28694 10.1319C9.28694 11.0023 8.72922 11.7713 7.90953 12.0502L5.18007 12.9543C4.96881 13.0219 4.75755 13.0557 4.54629 13.0557C4.12377 13.0557 3.7097 12.929 3.36324 12.6755C2.83932 12.2952 2.52665 11.6868 2.52665 11.0361V9.21928L2.5351 9.22773ZM3.38014 15.2106H8.45036C8.91513 15.2106 9.29539 15.5909 9.29539 16.0556C9.29539 16.5204 8.91513 16.9007 8.45036 16.9007H3.38014C2.91537 16.9007 2.5351 16.5204 2.5351 16.0556C2.5351 15.5909 2.91537 15.2106 3.38014 15.2106ZM11.8305 20.2808H3.38014C2.91537 20.2808 2.5351 19.9005 2.5351 19.4358C2.5351 18.971 2.91537 18.5907 3.38014 18.5907H11.8305C12.2953 18.5907 12.6755 18.971 12.6755 19.4358C12.6755 19.9005 12.2953 20.2808 11.8305 20.2808Z" fill="var(--fill-0, #0451D3)"/>
</g>
</g>
</svg>
