<svg preserveAspectRatio="none" width="100%" height="100%" overflow="visible" style="display: block;" viewBox="0 0 454 286" fill="none" xmlns="http://www.w3.org/2000/svg">
<path id="Subtract" d="M436.884 0C446.218 1.96936e-05 453.784 7.56654 453.784 16.9004V268.722C453.784 278.056 446.218 285.622 436.884 285.622H16.9004C7.56659 285.622 8.24796e-05 278.056 0 268.722V16.9004C0.00018374 7.56665 7.56664 0.000180964 16.9004 0H436.884ZM414.913 14.3652C405.579 14.3652 398.012 21.9326 398.012 31.2666V254.355C398.012 263.689 405.579 271.257 414.913 271.257H417.448C426.782 271.257 434.349 263.689 434.349 254.355V31.2666C434.349 21.9327 426.782 14.3654 417.448 14.3652H414.913Z" fill="var(--fill-0, white)"/>
</svg>
