<svg preserveAspectRatio="none" width="100%" height="100%" overflow="visible" style="display: block;" viewBox="0 0 1132 215" fill="none" xmlns="http://www.w3.org/2000/svg">
<g id="Graphic">
<path id="Star 3" d="M225.149 20.4989L217.035 53.6165C216.674 55.0902 217.471 56.6013 218.891 57.1359L250.802 69.1491L217.684 61.035C216.21 60.6739 214.699 61.4707 214.165 62.8907L202.151 94.8015L210.265 61.6839C210.626 60.2102 209.83 58.6991 208.41 58.1645L176.499 46.1513L209.616 54.2654C211.09 54.6264 212.601 53.8296 213.136 52.4097L225.149 20.4989Z" fill="var(--fill-0, #0451D3)"/>
<path id="Star 4" d="M933.029 152.146L912.209 159.084C910.77 159.564 909.916 161.043 910.22 162.529L914.621 184.029L907.683 163.209C907.203 161.77 905.723 160.916 904.237 161.22L882.738 165.621L903.557 158.683C904.997 158.203 905.851 156.723 905.546 155.237L901.145 133.738L908.084 154.557C908.564 155.997 910.043 156.851 911.529 156.546L933.029 152.146Z" fill="var(--fill-0, #0451D3)"/>
<circle id="Ellipse 5" cx="6" cy="47" r="6" fill="var(--fill-0, #0451D3)"/>
<circle id="Ellipse 6" cx="220" cy="209" r="6" fill="var(--fill-0, #0451D3)"/>
<circle id="Ellipse 7" cx="814" cy="6" r="6" fill="var(--fill-0, #0451D3)"/>
<circle id="Ellipse 9" cx="1126" cy="77" r="6" fill="var(--fill-0, #0451D3)"/>
</g>
</svg>
