<svg preserveAspectRatio="none" width="100%" height="100%" overflow="visible" style="display: block;" viewBox="0 0 28 28" fill="none" xmlns="http://www.w3.org/2000/svg">
<g id="Content Marketing">
<path id="Vector" d="M25.3088 11.0276C24.3539 10.0727 22.6808 10.0727 21.7259 11.0276L17.9317 14.8218C17.1373 15.6161 16.6979 16.6809 16.6979 17.8132V18.8019C16.6979 19.2667 17.0782 19.6469 17.5429 19.6469H18.5316C19.664 19.6469 20.7203 19.2075 21.5231 18.4132L25.3173 14.619C25.7989 14.1373 26.0609 13.5035 26.0609 12.8275C26.0609 12.1515 25.7989 11.5177 25.3173 11.036L25.3088 11.0276Z" fill="var(--fill-0, #0451D3)"/>
<g id="Group">
<path id="Vector_2" d="M4.65611 11.3573L7.38557 10.4531C7.52078 10.4109 7.60528 10.2841 7.60528 10.1405C7.60528 9.9968 7.51233 9.8785 7.37712 9.8278L4.65611 8.92361C4.65611 8.92361 4.58005 8.90671 4.54625 8.90671C4.46175 8.90671 4.39415 8.94051 4.36034 8.96586C4.30964 8.99966 4.22514 9.08417 4.22514 9.22782V11.0446C4.22514 11.1883 4.30964 11.2728 4.36034 11.3066C4.41105 11.3404 4.5209 11.3996 4.65611 11.3489V11.3573Z" fill="var(--fill-0, #0451D3)"/>
<path id="Vector_3" d="M16.7401 13.6219L20.5344 9.82771C21.1428 9.21928 21.954 8.82211 22.8244 8.67846V5.90674C22.8244 4.51243 21.6836 3.37163 20.2893 3.37163H3.38012C1.98581 3.37163 0.845012 4.51243 0.845012 5.90674V21.1174C0.845012 22.5117 1.98581 23.6525 3.38012 23.6525H20.2808C21.6752 23.6525 22.816 22.5117 22.816 21.1174V19.4865L22.7146 19.5879C21.5991 20.7033 20.1118 21.3202 18.5316 21.3202H17.5429C16.1486 21.3202 15.0078 20.1794 15.0078 18.7851V17.7964C15.0078 16.2162 15.6247 14.7289 16.7401 13.6135V13.6219ZM2.53509 9.22773C2.53509 8.57705 2.84775 7.96863 3.37167 7.58836C3.89559 7.20809 4.58007 7.10669 5.1885 7.3095L7.90952 8.21369C8.73765 8.49255 9.28693 9.26153 9.28693 10.1319C9.28693 11.0023 8.7292 11.7713 7.90952 12.0502L5.18005 12.9543C4.96879 13.0219 4.75753 13.0557 4.54627 13.0557C4.12375 13.0557 3.70969 12.929 3.36322 12.6755C2.8393 12.2952 2.52663 11.6868 2.52663 11.0361V9.21928L2.53509 9.22773ZM3.38012 15.2106H8.45034C8.91511 15.2106 9.29538 15.5909 9.29538 16.0556C9.29538 16.5204 8.91511 16.9007 8.45034 16.9007H3.38012C2.91535 16.9007 2.53509 16.5204 2.53509 16.0556C2.53509 15.5909 2.91535 15.2106 3.38012 15.2106ZM11.8305 20.2808H3.38012C2.91535 20.2808 2.53509 19.9005 2.53509 19.4358C2.53509 18.971 2.91535 18.5907 3.38012 18.5907H11.8305C12.2953 18.5907 12.6755 18.971 12.6755 19.4358C12.6755 19.9005 12.2953 20.2808 11.8305 20.2808Z" fill="var(--fill-0, #0451D3)"/>
</g>
</g>
</svg>
