<svg preserveAspectRatio="none" width="100%" height="100%" overflow="visible" style="display: block;" viewBox="0 0 87 87" fill="none" xmlns="http://www.w3.org/2000/svg">
<g id="Button">
<rect width="87" height="87" rx="43.5" fill="var(--fill-0, #0451D3)" fill-opacity="0.05"/>
<path id="Arrow 1" d="M27.8787 54.3787C26.7071 55.5503 26.7071 57.4497 27.8787 58.6213C29.0503 59.7929 30.9497 59.7929 32.1213 58.6213L30 56.5L27.8787 54.3787ZM59 30.5C59 28.8431 57.6569 27.5 56 27.5H29C27.3431 27.5 26 28.8431 26 30.5C26 32.1569 27.3431 33.5 29 33.5H53V57.5C53 59.1569 54.3431 60.5 56 60.5C57.6569 60.5 59 59.1569 59 57.5V30.5ZM30 56.5L32.1213 58.6213L58.1213 32.6213L56 30.5L53.8787 28.3787L27.8787 54.3787L30 56.5Z" fill="var(--stroke-0, #0451D3)"/>
</g>
</svg>
