<svg preserveAspectRatio="none" width="100%" height="100%" overflow="visible" style="display: block;" viewBox="0 0 23 23" fill="none" xmlns="http://www.w3.org/2000/svg">
<g id="Global">
<path id="Vector" d="M7.74729 16.9032C7.74729 17.2906 7.43036 17.6075 7.04299 17.6075H5.63439C5.24702 17.6075 4.93009 17.2906 4.93009 16.9032C4.93009 16.5158 5.24702 16.1989 5.63439 16.1989H7.04299C7.43036 16.1989 7.74729 16.5158 7.74729 16.9032ZM11.9731 12.6774V19.7204C11.9731 20.8825 11.0223 21.8333 9.86019 21.8333H2.81718C1.65509 21.8333 0.704281 20.8825 0.704281 19.7204V12.6774C0.704281 11.5153 1.65509 10.5645 2.81718 10.5645H9.86019C11.0223 10.5645 11.9731 11.5153 11.9731 12.6774ZM9.15589 16.9032C9.15589 15.7411 8.20509 14.7903 7.04299 14.7903H5.63439C4.47229 14.7903 3.52148 15.7411 3.52148 16.9032C3.52148 18.0653 4.47229 19.0161 5.63439 19.0161H7.04299C8.20509 19.0161 9.15589 18.0653 9.15589 16.9032ZM12.6774 6.33867C12.6774 6.72604 12.9943 7.04297 13.3817 7.04297C13.5719 7.04297 13.7409 6.97254 13.8677 6.83873C14.0085 6.69787 14.086 6.52883 14.086 6.33867C14.086 5.76819 14.3114 5.23292 14.7128 4.83851C15.4735 4.05674 16.9032 4.04265 17.692 4.8526C18.0864 5.23292 18.3048 5.76819 18.3048 6.33867V9.15588C18.3048 9.54324 18.6217 9.86018 19.0091 9.86018H21.8263C21.8263 4.81034 17.7202 0.704263 12.6704 0.704263V6.33867H12.6774ZM19.0161 11.2688C17.854 11.2688 16.9032 10.318 16.9032 9.15588V6.33867C16.9032 6.14851 16.8328 5.97948 16.699 5.8527C16.4172 5.56394 15.9665 5.57803 15.7059 5.83862C15.565 5.97948 15.4876 6.14851 15.4876 6.33867C15.4876 6.90916 15.2622 7.44442 14.8607 7.83883C14.4804 8.23324 13.9451 8.45157 13.3747 8.45157C12.2126 8.45157 11.2618 7.50077 11.2618 6.33867V0.823994C7.11342 1.47195 3.87364 4.90894 3.54966 9.15588H9.85315C11.797 9.15588 13.3747 10.7335 13.3747 12.6774V18.9809C17.6216 18.6569 21.0586 15.4171 21.7065 11.2688H19.0091H19.0161Z" fill="var(--fill-0, #0451D3)"/>
</g>
</svg>
