<svg preserveAspectRatio="none" width="100%" height="100%" overflow="visible" style="display: block;" viewBox="0 0 32 32" fill="none" xmlns="http://www.w3.org/2000/svg">
<g id="Cursour Click">
<path id="Vector" d="M17.23 11.13L4.57 14.31C3.24 14.64 2.35 15.74 2.3 17.11C2.25 18.48 3.05 19.64 4.35 20.07L9.59 21.81C9.89 21.91 10.12 22.15 10.22 22.44L11.95 27.66C12.37 28.92 13.47 29.71 14.79 29.71C14.83 29.71 14.87 29.71 14.92 29.71C16.29 29.66 17.38 28.77 17.72 27.44L20.87 14.77C21.13 13.74 20.83 12.67 20.08 11.92C19.33 11.17 18.26 10.87 17.23 11.13Z" fill="var(--fill-0, white)"/>
<path id="Vector_2" d="M22.82 14.83C23.02 15.03 23.27 15.12 23.53 15.12C23.79 15.12 24.04 15.02 24.24 14.83C26.19 12.88 26.19 9.71 24.24 7.76C22.29 5.81 19.12 5.81 17.17 7.76C16.78 8.15 16.78 8.78 17.17 9.17C17.56 9.56 18.19 9.56 18.58 9.17C19.75 8 21.65 8 22.82 9.17C23.99 10.34 23.99 12.24 22.82 13.41C22.43 13.8 22.43 14.43 22.82 14.82V14.83Z" fill="var(--fill-0, white)"/>
<path id="Vector_3" d="M27.07 4.93C25.37 3.23 23.11 2.29 20.71 2.29C18.31 2.29 16.05 3.23 14.35 4.93C13.22 6.06 12.42 7.46 12.02 8.98C11.88 9.51 12.2 10.06 12.74 10.2C13.28 10.34 13.82 10.02 13.96 9.48C14.26 8.31 14.89 7.22 15.76 6.35C17.08 5.03 18.84 4.3 20.71 4.3C22.58 4.3 24.34 5.03 25.66 6.35C28.39 9.08 28.39 13.52 25.66 16.25C24.78 17.13 23.7 17.75 22.53 18.05C21.99 18.19 21.67 18.73 21.81 19.27C21.93 19.72 22.33 20.02 22.78 20.02C22.86 20.02 22.95 20.01 23.03 19.99C24.55 19.6 25.95 18.79 27.08 17.66C30.59 14.15 30.59 8.44 27.08 4.93H27.07Z" fill="var(--fill-0, white)"/>
</g>
</svg>
