<svg preserveAspectRatio="none" width="100%" height="100%" overflow="visible" style="display: block;" viewBox="0 0 28 28" fill="none" xmlns="http://www.w3.org/2000/svg">
<g id="Content Marketing">
<path id="Vector" d="M25.3088 11.0277C24.3539 10.0728 22.6808 10.0728 21.7259 11.0277L17.9317 14.8219C17.1373 15.6162 16.6979 16.681 16.6979 17.8133V18.802C16.6979 19.2668 17.0782 19.6471 17.543 19.6471H18.5316C19.664 19.6471 20.7203 19.2076 21.5231 18.4133L25.3173 14.6191C25.799 14.1374 26.0609 13.5036 26.0609 12.8276C26.0609 12.1516 25.799 11.5178 25.3173 11.0361L25.3088 11.0277Z" fill="var(--fill-0, #0451D3)"/>
<g id="Group">
<path id="Vector_2" d="M4.65614 11.3573L7.38561 10.4531C7.52082 10.4109 7.60532 10.2841 7.60532 10.1404C7.60532 9.99678 7.51237 9.87848 7.37716 9.82778L4.65614 8.92359C4.65614 8.92359 4.58009 8.90669 4.54629 8.90669C4.46178 8.90669 4.39418 8.94049 4.36038 8.96584C4.30968 8.99964 4.22517 9.08414 4.22517 9.2278V11.0446C4.22517 11.1883 4.30968 11.2728 4.36038 11.3066C4.41108 11.3404 4.52094 11.3995 4.65614 11.3488V11.3573Z" fill="var(--fill-0, #0451D3)"/>
<path id="Vector_3" d="M16.7402 13.622L20.5344 9.82782C21.1428 9.21939 21.954 8.82223 22.8244 8.67857V5.90685C22.8244 4.51254 21.6836 3.37174 20.2893 3.37174H3.38014C1.98583 3.37174 0.845031 4.51254 0.845031 5.90685V21.1175C0.845031 22.5118 1.98583 23.6526 3.38014 23.6526H20.2809C21.6752 23.6526 22.816 22.5118 22.816 21.1175V19.4866L22.7146 19.588C21.5991 20.7034 20.1119 21.3203 18.5316 21.3203H17.5429C16.1486 21.3203 15.0078 20.1795 15.0078 18.7852V17.7965C15.0078 16.2163 15.6247 14.729 16.7402 13.6136V13.622ZM2.5351 9.22784C2.5351 8.57717 2.84777 7.96874 3.37169 7.58847C3.89561 7.20821 4.58009 7.1068 5.18852 7.30961L7.90953 8.2138C8.73767 8.49266 9.28694 9.26164 9.28694 10.132C9.28694 11.0024 8.72922 11.7714 7.90953 12.0503L5.18007 12.9545C4.96881 13.0221 4.75755 13.0559 4.54629 13.0559C4.12377 13.0559 3.7097 12.9291 3.36324 12.6756C2.83932 12.2953 2.52665 11.6869 2.52665 11.0362V9.21939L2.5351 9.22784ZM3.38014 15.2107H8.45036C8.91513 15.2107 9.29539 15.591 9.29539 16.0557C9.29539 16.5205 8.91513 16.9008 8.45036 16.9008H3.38014C2.91537 16.9008 2.5351 16.5205 2.5351 16.0557C2.5351 15.591 2.91537 15.2107 3.38014 15.2107ZM11.8305 20.2809H3.38014C2.91537 20.2809 2.5351 19.9007 2.5351 19.4359C2.5351 18.9711 2.91537 18.5908 3.38014 18.5908H11.8305C12.2953 18.5908 12.6755 18.9711 12.6755 19.4359C12.6755 19.9007 12.2953 20.2809 11.8305 20.2809Z" fill="var(--fill-0, #0451D3)"/>
</g>
</g>
</svg>
