<svg preserveAspectRatio="none" width="100%" height="100%" overflow="visible" style="display: block;" viewBox="0 0 23 23" fill="none" xmlns="http://www.w3.org/2000/svg">
<g id="Brand Strategy">
<path id="Vector" d="M11.2688 21.8333C6.60632 21.8333 2.81718 18.0442 2.81718 13.3817C2.81718 12.9943 3.13412 12.6774 3.52148 12.6774C3.90885 12.6774 4.22578 12.9943 4.22578 13.3817C4.22578 17.2624 7.38809 20.4247 11.2688 20.4247C15.1495 20.4247 18.3118 17.2624 18.3118 13.3817C18.3118 12.9943 18.6287 12.6774 19.0161 12.6774C19.4035 12.6774 19.7204 12.9943 19.7204 13.3817C19.7204 18.0442 15.9313 21.8333 11.2688 21.8333Z" fill="var(--fill-0, #0451D3)"/>
<path id="Vector_2" d="M11.9731 7.7966V2.81719C11.9731 1.6551 11.0223 0.704291 9.86019 0.704291H7.04299C5.88089 0.704291 4.93008 1.6551 4.93008 2.81719V4.2258C4.93008 5.38789 5.88089 6.3387 7.04299 6.3387H10.5645V7.7966C7.78955 8.14171 5.63438 10.5152 5.63438 13.3817C5.63438 16.4877 8.16283 19.0161 11.2688 19.0161C14.3748 19.0161 16.9032 16.4877 16.9032 13.3817C16.9032 10.5152 14.748 8.14171 11.9731 7.7966ZM13.8817 12.4732L11.0645 15.2904C10.9237 15.4312 10.7476 15.4946 10.5645 15.4946C10.3814 15.4946 10.2053 15.4242 10.0644 15.2904L8.66992 13.8959C8.39524 13.6212 8.39524 13.1775 8.66992 12.9028C8.9446 12.6281 9.38831 12.6281 9.66299 12.9028L10.5645 13.8043L12.8816 11.4871C13.1563 11.2125 13.6 11.2125 13.8747 11.4871C14.1494 11.7618 14.1494 12.2055 13.8747 12.4802L13.8817 12.4732Z" fill="var(--fill-0, #0451D3)"/>
</g>
</svg>
