<svg preserveAspectRatio="none" width="100%" height="100%" overflow="visible" style="display: block;" viewBox="0 0 178 34" fill="none" xmlns="http://www.w3.org/2000/svg">
<g id="Stars review">
<path id="Star 5" d="M16.0489 2.92705C16.3483 2.00574 17.6517 2.00574 17.9511 2.92705L20.5922 11.0557C20.7261 11.4678 21.1101 11.7467 21.5433 11.7467L30.0903 11.7467C31.059 11.7467 31.4618 12.9863 30.6781 13.5557L23.7634 18.5795C23.4129 18.8342 23.2663 19.2855 23.4001 19.6976L26.0413 27.8262C26.3406 28.7475 25.2862 29.5137 24.5025 28.9443L17.5878 23.9205C17.2373 23.6658 16.7627 23.6658 16.4122 23.9205L9.49755 28.9443C8.71383 29.5137 7.65935 28.7475 7.95871 27.8262L10.5999 19.6976C10.7337 19.2855 10.5871 18.8342 10.2366 18.5795L3.32194 13.5557C2.53822 12.9863 2.941 11.7467 3.90972 11.7467L12.4567 11.7467C12.8899 11.7467 13.2739 11.4678 13.4078 11.0557L16.0489 2.92705Z" fill="var(--fill-0, #FFF200)"/>
<path id="Star 6" d="M52.0489 2.92705C52.3483 2.00574 53.6517 2.00574 53.9511 2.92705L56.5922 11.0557C56.7261 11.4678 57.1101 11.7467 57.5433 11.7467L66.0903 11.7467C67.059 11.7467 67.4618 12.9863 66.6781 13.5557L59.7634 18.5795C59.4129 18.8342 59.2663 19.2855 59.4001 19.6976L62.0413 27.8262C62.3406 28.7475 61.2862 29.5137 60.5025 28.9443L53.5878 23.9205C53.2373 23.6658 52.7627 23.6658 52.4122 23.9205L45.4975 28.9443C44.7138 29.5137 43.6594 28.7475 43.9587 27.8262L46.5999 19.6976C46.7337 19.2855 46.5871 18.8342 46.2366 18.5795L39.3219 13.5557C38.5382 12.9863 38.941 11.7467 39.9097 11.7467L48.4567 11.7467C48.8899 11.7467 49.2739 11.4678 49.4078 11.0557L52.0489 2.92705Z" fill="var(--fill-0, #FFF200)"/>
<path id="Star 7" d="M88.0489 2.92705C88.3483 2.00574 89.6517 2.00574 89.9511 2.92705L92.5922 11.0557C92.7261 11.4678 93.1101 11.7467 93.5433 11.7467L102.09 11.7467C103.059 11.7467 103.462 12.9863 102.678 13.5557L95.7634 18.5795C95.4129 18.8342 95.2663 19.2855 95.4001 19.6976L98.0413 27.8262C98.3406 28.7475 97.2862 29.5137 96.5025 28.9443L89.5878 23.9205C89.2373 23.6658 88.7627 23.6658 88.4122 23.9205L81.4975 28.9443C80.7138 29.5137 79.6594 28.7475 79.9587 27.8262L82.5999 19.6976C82.7337 19.2855 82.5871 18.8342 82.2366 18.5795L75.3219 13.5557C74.5382 12.9863 74.941 11.7467 75.9097 11.7467L84.4567 11.7467C84.8899 11.7467 85.2739 11.4678 85.4078 11.0557L88.0489 2.92705Z" fill="var(--fill-0, #FFF200)"/>
<path id="Star 8" d="M124.049 2.92705C124.348 2.00574 125.652 2.00574 125.951 2.92705L128.592 11.0557C128.726 11.4678 129.11 11.7467 129.543 11.7467L138.09 11.7467C139.059 11.7467 139.462 12.9863 138.678 13.5557L131.763 18.5795C131.413 18.8342 131.266 19.2855 131.4 19.6976L134.041 27.8262C134.341 28.7475 133.286 29.5137 132.502 28.9443L125.588 23.9205C125.237 23.6658 124.763 23.6658 124.412 23.9205L117.498 28.9443C116.714 29.5137 115.659 28.7475 115.959 27.8262L118.6 19.6976C118.734 19.2855 118.587 18.8342 118.237 18.5795L111.322 13.5557C110.538 12.9863 110.941 11.7467 111.91 11.7467L120.457 11.7467C120.89 11.7467 121.274 11.4678 121.408 11.0557L124.049 2.92705Z" fill="var(--fill-0, #FFF200)"/>
<path id="Star 9" d="M160.049 2.92705C160.348 2.00574 161.652 2.00574 161.951 2.92705L164.592 11.0557C164.726 11.4678 165.11 11.7467 165.543 11.7467L174.09 11.7467C175.059 11.7467 175.462 12.9863 174.678 13.5557L167.763 18.5795C167.413 18.8342 167.266 19.2855 167.4 19.6976L170.041 27.8262C170.341 28.7475 169.286 29.5137 168.502 28.9443L161.588 23.9205C161.237 23.6658 160.763 23.6658 160.412 23.9205L153.498 28.9443C152.714 29.5137 151.659 28.7475 151.959 27.8262L154.6 19.6976C154.734 19.2855 154.587 18.8342 154.237 18.5795L147.322 13.5557C146.538 12.9863 146.941 11.7467 147.91 11.7467L156.457 11.7467C156.89 11.7467 157.274 11.4678 157.408 11.0557L160.049 2.92705Z" fill="var(--fill-0, #FFF200)"/>
</g>
</svg>
