<svg preserveAspectRatio="none" width="100%" height="100%" overflow="visible" style="display: block;" viewBox="0 0 23 23" fill="none" xmlns="http://www.w3.org/2000/svg">
<g id="Experts">
<path id="Vector" d="M19.7204 10.5645C19.3331 10.5645 19.0161 10.2475 19.0161 9.86018C19.0161 5.58507 15.5439 2.11287 11.2688 2.11287C6.99371 2.11287 3.52151 5.58507 3.52151 9.86018C3.52151 10.2475 3.20457 10.5645 2.81721 10.5645C2.42984 10.5645 2.11291 10.2475 2.11291 9.86018C2.11291 4.81034 6.21898 0.704263 11.2688 0.704263C16.3187 0.704263 20.4247 4.81034 20.4247 9.86018C20.4247 10.2475 20.1078 10.5645 19.7204 10.5645Z" fill="var(--fill-0, #0451D3)"/>
<g id="Group">
<path id="Vector_2" d="M13.3888 10.994C12.8746 11.5856 12.121 11.973 11.2688 11.973C10.4166 11.973 9.67006 11.5856 9.14888 10.994C8.2192 11.3673 7.40221 11.973 6.78947 12.79C6.57113 13.0717 6.39506 13.3746 6.23307 13.6915C7.39517 15.2128 9.21226 16.1918 11.2688 16.1918C13.3254 16.1918 15.1425 15.2058 16.3046 13.6845C16.1496 13.3675 15.9665 13.0647 15.7552 12.79C15.1354 11.966 14.3184 11.3603 13.3888 10.987V10.994Z" fill="var(--fill-0, #0451D3)"/>
<path id="Vector_3" d="M5.66963 11.9379C6.40914 10.9519 7.38812 10.1982 8.50796 9.72637C8.47275 9.54325 8.45162 9.35309 8.45162 9.16293C8.45162 7.60642 9.71232 6.34572 11.2688 6.34572C12.8253 6.34572 14.086 7.60642 14.086 9.16293C14.086 9.36013 14.0649 9.54325 14.0297 9.72637C15.1566 10.1982 16.1285 10.9589 16.8751 11.952C16.9596 12.0646 17.0441 12.1844 17.1216 12.2971C17.4315 11.5505 17.6075 10.7265 17.6075 9.86723C17.6075 6.37389 14.7622 3.52852 11.2688 3.52852C7.77549 3.52852 4.93011 6.36685 4.93011 9.86018C4.93011 10.7194 5.10619 11.5435 5.41608 12.29C5.5006 12.1703 5.57807 12.0506 5.66963 11.9308V11.9379Z" fill="var(--fill-0, #0451D3)"/>
<path id="Vector_4" d="M11.2688 10.5644C12.0468 10.5644 12.6774 9.93378 12.6774 9.15583C12.6774 8.37788 12.0468 7.74723 11.2688 7.74723C10.4909 7.74723 9.86022 8.37788 9.86022 9.15583C9.86022 9.93378 10.4909 10.5644 11.2688 10.5644Z" fill="var(--fill-0, #0451D3)"/>
</g>
<path id="Vector_5" d="M11.2688 17.6075C9.71232 17.6075 8.26146 17.1426 7.04301 16.3468V19.7204C7.04301 20.8825 7.99382 21.8333 9.15592 21.8333H9.27565C9.83909 21.8333 10.3744 21.6149 10.7758 21.2135C11.0434 20.9458 11.4942 20.9458 11.7689 21.2135C12.1703 21.6149 12.6986 21.8333 13.269 21.8333H13.3888C14.5509 21.8333 15.5017 20.8825 15.5017 19.7204V16.3468C14.2832 17.1426 12.8324 17.6075 11.2759 17.6075H11.2688Z" fill="var(--fill-0, #0451D3)"/>
</g>
</svg>
