<svg preserveAspectRatio="none" width="100%" height="100%" overflow="visible" style="display: block;" viewBox="0 0 17 18" fill="none" xmlns="http://www.w3.org/2000/svg">
<g id="Group 15">
<path id="Vector" d="M5.67052 8.50756C5.67052 6.94142 6.93941 5.67148 8.5051 5.67148C10.0708 5.67148 11.3404 6.94142 11.3404 8.50756C11.3404 10.0737 10.0708 11.3436 8.5051 11.3436C6.93941 11.3436 5.67052 10.0737 5.67052 8.50756ZM4.13783 8.50756C4.13783 10.9203 6.09305 12.8761 8.5051 12.8761C10.9171 12.8761 12.8724 10.9203 12.8724 8.50756C12.8724 6.09481 10.9171 4.13903 8.5051 4.13903C6.09305 4.13903 4.13783 6.09481 4.13783 8.50756ZM12.0246 3.96581C12.0246 4.16773 12.0843 4.36514 12.1964 4.53307C12.3085 4.701 12.4678 4.83192 12.6543 4.90926C12.8408 4.98661 13.046 5.0069 13.244 4.96759C13.442 4.92828 13.6239 4.83112 13.7667 4.6884C13.9094 4.54568 14.0067 4.36381 14.0462 4.16579C14.0856 3.96777 14.0655 3.76249 13.9883 3.57592C13.9112 3.38934 13.7804 3.22984 13.6126 3.1176C13.4448 3.00535 13.2475 2.9454 13.0457 2.94532H13.0453C12.7747 2.94544 12.5152 3.05299 12.3239 3.24433C12.1325 3.43567 12.0249 3.69516 12.0246 3.96581V3.96581ZM5.06904 15.4325C4.23983 15.3947 3.78912 15.2566 3.48961 15.1398C3.09252 14.9852 2.8092 14.801 2.51132 14.5035C2.21344 14.2059 2.02904 13.9228 1.87514 13.5256C1.75838 13.2261 1.62026 12.7752 1.58256 11.9457C1.54133 11.0489 1.5331 10.7795 1.5331 8.50762C1.5331 6.2357 1.54201 5.96706 1.58256 5.06955C1.62032 4.2401 1.75947 3.79001 1.87514 3.48966C2.02973 3.09246 2.21384 2.80906 2.51132 2.51109C2.80879 2.21312 3.09184 2.02868 3.48961 1.87473C3.78899 1.75793 4.23983 1.61977 5.06904 1.58207C5.96555 1.54082 6.23485 1.53259 8.5051 1.53259C10.7753 1.53259 11.0449 1.5415 11.9422 1.58207C12.7714 1.61984 13.2213 1.75902 13.5216 1.87473C13.9187 2.02868 14.202 2.21353 14.4999 2.51109C14.7978 2.80865 14.9815 3.09246 15.1361 3.48966C15.2528 3.78913 15.391 4.2401 15.4287 5.06955C15.4699 5.96706 15.4781 6.2357 15.4781 8.50762C15.4781 10.7795 15.4699 11.0482 15.4287 11.9457C15.3909 12.7752 15.2521 13.226 15.1361 13.5256C14.9815 13.9228 14.7974 14.2062 14.4999 14.5035C14.2024 14.8008 13.9187 14.9852 13.5216 15.1398C13.2222 15.2566 12.7714 15.3948 11.9422 15.4325C11.0457 15.4737 10.7764 15.482 8.5051 15.482C6.23383 15.482 5.96527 15.4737 5.06904 15.4325V15.4325ZM4.99862 0.0515218C4.0932 0.0927664 3.4745 0.236374 2.93419 0.446681C2.37462 0.663862 1.90092 0.955228 1.42756 1.42798C0.954204 1.90072 0.66367 2.37531 0.446552 2.93504C0.236306 3.47585 0.0927396 4.09438 0.0515069 5.00006C0.00959376 5.90717 0 6.19718 0 8.50756C0 10.8179 0.00959376 11.1079 0.0515069 12.0151C0.0927396 12.9208 0.236306 13.5393 0.446552 14.0801C0.66367 14.6395 0.954272 15.1146 1.42756 15.5871C1.90086 16.0597 2.37462 16.3506 2.93419 16.5684C3.47552 16.7787 4.0932 16.9223 4.99862 16.9636C5.90594 17.0048 6.19539 17.0151 8.5051 17.0151C10.8148 17.0151 11.1047 17.0055 12.0116 16.9636C12.9171 16.9223 13.5354 16.7787 14.076 16.5684C14.6352 16.3506 15.1093 16.0599 15.5826 15.5871C16.056 15.1144 16.3459 14.6395 16.5636 14.0801C16.7739 13.5393 16.9181 12.9207 16.9587 12.0151C16.9999 11.1073 17.0095 10.8179 17.0095 8.50756C17.0095 6.19718 16.9999 5.90717 16.9587 5.00006C16.9175 4.09431 16.7739 3.47551 16.5636 2.93504C16.3459 2.37565 16.0552 1.90147 15.5826 1.42798C15.11 0.95448 14.6352 0.663862 14.0767 0.446681C13.5354 0.236374 12.917 0.0920858 12.0123 0.0515218C11.1054 0.0102771 10.8155 0 8.50578 0C6.19607 0 5.90594 0.00959653 4.99862 0.0515218Z" fill="var(--fill-0, #101012)"/>
<g id="Vector_2">
</g>
</g>
</svg>
