<svg preserveAspectRatio="none" width="100%" height="100%" overflow="visible" style="display: block;" viewBox="0 0 23 23" fill="none" xmlns="http://www.w3.org/2000/svg">
<g id="Bulb">
<path id="Vector" d="M11.2688 3.52149C10.8814 3.52149 10.5645 3.20456 10.5645 2.81719V1.40859C10.5645 1.02123 10.8814 0.704291 11.2688 0.704291C11.6562 0.704291 11.9731 1.02123 11.9731 1.40859V2.81719C11.9731 3.20456 11.6562 3.52149 11.2688 3.52149ZM17.7413 5.78934L18.7344 4.79628C19.0091 4.5216 19.0091 4.07789 18.7344 3.80322C18.4597 3.52854 18.016 3.52854 17.7413 3.80322L16.7483 4.79628C16.4736 5.07096 16.4736 5.51467 16.7483 5.78934C16.8891 5.9302 17.0652 5.99359 17.2483 5.99359C17.4314 5.99359 17.6075 5.92316 17.7484 5.78934H17.7413ZM21.8333 11.2688C21.8333 10.8814 21.5164 10.5645 21.129 10.5645H19.7204C19.3331 10.5645 19.0161 10.8814 19.0161 11.2688C19.0161 11.6562 19.3331 11.9731 19.7204 11.9731H21.129C21.5164 11.9731 21.8333 11.6562 21.8333 11.2688ZM5.78935 5.78934C6.06403 5.51467 6.06403 5.07096 5.78935 4.79628L4.79629 3.80322C4.52161 3.52854 4.0779 3.52854 3.80322 3.80322C3.52855 4.07789 3.52855 4.5216 3.80322 4.79628L4.79629 5.78934C4.93715 5.9302 5.11322 5.99359 5.29634 5.99359C5.47946 5.99359 5.65553 5.92316 5.79639 5.78934H5.78935ZM3.5215 11.2688C3.5215 10.8814 3.20457 10.5645 2.8172 10.5645H1.4086C1.02123 10.5645 0.704298 10.8814 0.704298 11.2688C0.704298 11.6562 1.02123 11.9731 1.4086 11.9731H2.8172C3.20457 11.9731 3.5215 11.6562 3.5215 11.2688ZM11.2688 11.9731C11.6562 11.9731 11.9731 11.6562 11.9731 11.2688C11.9731 10.8814 11.6562 10.5645 11.2688 10.5645C10.8814 10.5645 10.5645 10.8814 10.5645 11.2688C10.5645 11.6562 10.8814 11.9731 11.2688 11.9731ZM4.9301 11.2688C4.9301 9.4658 5.70484 7.74026 7.05005 6.5359C8.39527 5.33155 10.2053 4.76106 12.0154 4.97235C14.8889 5.30338 17.2131 7.62053 17.5582 10.487C17.8047 12.5788 17.037 14.6142 15.4946 15.9876V17.6075H7.04301V15.9876C5.69779 14.7903 4.9301 13.0859 4.9301 11.2688ZM9.15591 11.2688C9.15591 12.1844 9.74752 12.9591 10.5645 13.2549V15.4946C10.5645 15.882 10.8814 16.1989 11.2688 16.1989C11.6562 16.1989 11.9731 15.882 11.9731 15.4946V13.2549C12.7901 12.9662 13.3817 12.1914 13.3817 11.2688C13.3817 10.1067 12.4309 9.1559 11.2688 9.1559C10.1067 9.1559 9.15591 10.1067 9.15591 11.2688ZM7.04301 19.0161V19.7204C7.04301 20.8825 7.99381 21.8333 9.15591 21.8333H13.3817C14.5438 21.8333 15.4946 20.8825 15.4946 19.7204V19.0161H7.04301Z" fill="var(--fill-0, #0451D3)"/>
</g>
</svg>
