<svg preserveAspectRatio="none" width="100%" height="100%" overflow="visible" style="display: block;" viewBox="0 0 22 22" fill="none" xmlns="http://www.w3.org/2000/svg">
<g id="Innovation">
<path id="Vector" d="M17.875 9.625H16.5C16.1219 9.625 15.8125 9.31563 15.8125 8.9375C15.8125 8.55937 16.1219 8.25 16.5 8.25H17.875C18.2531 8.25 18.5625 8.55937 18.5625 8.9375C18.5625 9.31563 18.2531 9.625 17.875 9.625Z" fill="var(--fill-0, #0451D3)"/>
<path id="Vector_2" d="M15.8606 14.4856C15.6819 14.4856 15.51 14.4169 15.3725 14.2863L14.4031 13.3169C14.135 13.0488 14.135 12.6156 14.4031 12.3475C14.6713 12.0794 15.1044 12.0794 15.3725 12.3475L16.3419 13.3169C16.61 13.585 16.61 14.0181 16.3419 14.2863C16.2044 14.4238 16.0325 14.4856 15.8537 14.4856H15.8606Z" fill="var(--fill-0, #0451D3)"/>
<path id="Vector_3" d="M14.8913 5.73375C14.7125 5.73375 14.5406 5.665 14.4031 5.53438C14.135 5.26625 14.135 4.83312 14.4031 4.565L15.3725 3.59562C15.6406 3.3275 16.0738 3.3275 16.3419 3.59562C16.61 3.86375 16.61 4.29687 16.3419 4.565L15.3725 5.53438C15.235 5.67188 15.0631 5.73375 14.8844 5.73375H14.8913Z" fill="var(--fill-0, #0451D3)"/>
<path id="Vector_4" d="M15.125 18.5625H6.875C6.11561 18.5625 5.5 19.1781 5.5 19.9375C5.5 20.6969 6.11561 21.3125 6.875 21.3125H15.125C15.8844 21.3125 16.5 20.6969 16.5 19.9375C16.5 19.1781 15.8844 18.5625 15.125 18.5625Z" fill="var(--fill-0, #0451D3)"/>
<path id="Vector_5" d="M11 13.75C8.34625 13.75 6.1875 11.5912 6.1875 8.9375C6.1875 6.28375 8.34625 4.125 11 4.125C11.2406 4.125 11.4744 4.14562 11.7013 4.18V1.375C11.7013 1.18937 11.6325 1.0175 11.5019 0.886875C11.3712 0.75625 11.1994 0.680625 11 0.6875C10.9656 0.6875 10.9313 0.6875 10.8969 0.6875C8.91688 0.715 7.06063 1.49875 5.65125 2.90125C4.22125 4.33125 3.43062 6.22875 3.43062 8.25C3.43062 10.8075 4.73688 13.2 6.86812 14.5887V16.5C6.86812 16.7406 6.91625 16.9744 6.99188 17.1875H11.6944V13.695C11.4675 13.7294 11.2337 13.75 10.9931 13.75H11Z" fill="var(--fill-0, #0451D3)"/>
<path id="Vector_6" d="M11 12.375C12.8985 12.375 14.4375 10.836 14.4375 8.9375C14.4375 7.03902 12.8985 5.5 11 5.5C9.10152 5.5 7.5625 7.03902 7.5625 8.9375C7.5625 10.836 9.10152 12.375 11 12.375Z" fill="var(--fill-0, #0451D3)"/>
</g>
</svg>
